<svg width="18" height="18" viewBox="0 0 18 18" fill="none" xmlns="http://www.w3.org/2000/svg">
<path d="M16.2559 8.08541C16.5191 8.08541 16.7338 8.17546 16.9001 8.35557C17.0802 8.52182 17.1703 8.73657 17.1703 8.9998C17.1703 9.26304 17.0802 9.48471 16.9001 9.66482C16.7338 9.83108 16.5191 9.9142 16.2559 9.9142H9.91445V16.2348C9.91445 16.4981 9.82439 16.7197 9.64428 16.8999C9.47803 17.08 9.26328 17.17 9.00005 17.17C8.73681 17.17 8.51514 17.08 8.33503 16.8999C8.16878 16.7197 8.08565 16.4981 8.08565 16.2348V9.9142H1.74423C1.481 9.9142 1.25932 9.83108 1.07922 9.66482C0.912961 9.48471 0.829834 9.26304 0.829834 8.9998C0.829834 8.73657 0.912961 8.52182 1.07922 8.35557C1.25932 8.17546 1.481 8.08541 1.74423 8.08541H8.08565V1.74399C8.08565 1.48075 8.16878 1.26601 8.33503 1.09975C8.51514 0.919644 8.73681 0.82959 9.00005 0.82959C9.26328 0.82959 9.47803 0.919644 9.64428 1.09975C9.82439 1.26601 9.91445 1.48075 9.91445 1.74399V8.08541H16.2559Z" fill="url(#paint0_linear)"/>
<defs>
<linearGradient id="paint0_linear" x1="17.1703" y1="17.17" x2="5.83087" y2="-2.1115" gradientUnits="userSpaceOnUse">
<stop stop-color="#15B6D6"/>
<stop offset="1" stop-color="#15D6D6"/>
</linearGradient>
</defs>
</svg>
