<svg width="20" height="20" viewBox="0 0 20 20" fill="none" xmlns="http://www.w3.org/2000/svg">
<path d="M2.61481 16.0998L2.73794 15.7327L2.51004 15.4198C1.40177 13.8978 0.75 12.024 0.75 10C0.75 4.89903 4.89815 0.75 9.9975 0.75H10.0025C15.1018 0.75 19.25 4.90022 19.25 10C19.25 15.0998 15.1018 19.25 10.0025 19.25C8.12025 19.25 6.37742 18.6907 4.91545 17.7222L4.61554 17.5236L4.27288 17.6331L1.83947 18.411L2.61481 16.0998Z" stroke="white" stroke-width="1.5"/>
<path d="M14.8213 13.6596C14.6175 14.2775 13.8091 14.7899 13.1642 14.9396C12.723 15.0405 12.1467 15.121 10.2067 14.2571C7.72525 13.1528 6.12725 10.4443 6.00271 10.2685C5.88344 10.0928 5 8.83434 5 7.53279C5 6.23125 5.61535 5.59749 5.86338 5.32539C6.06709 5.10204 6.40379 5 6.72677 5C6.83126 5 6.9252 5.00567 7.00964 5.0102C7.25768 5.02154 7.38222 5.03741 7.54582 5.45803C7.74953 5.98523 8.24561 7.28677 8.30471 7.42055C8.36488 7.55433 8.42504 7.73573 8.3406 7.91147C8.26144 8.09287 8.19178 8.17336 8.06723 8.32755C7.94268 8.48174 7.82447 8.59965 7.69992 8.76518C7.58593 8.90916 7.45716 9.06335 7.60071 9.32978C7.74425 9.59055 8.24033 10.4601 8.97072 11.1585C9.91327 12.0598 10.6774 12.3478 10.9508 12.4703C11.1545 12.561 11.3973 12.5394 11.5461 12.3694C11.735 12.1506 11.9683 11.7878 12.2058 11.4306C12.3747 11.1744 12.5879 11.1426 12.8116 11.2333C13.0396 11.3184 14.246 11.9589 14.4941 12.0916C14.7421 12.2254 14.9057 12.2889 14.9659 12.4011C15.025 12.5133 15.025 13.0405 14.8213 13.6596Z" fill="#FAFAFA"/>
</svg>
